<svg width="60" height="60" viewBox="0 0 60 60" fill="none" xmlns="http://www.w3.org/2000/svg">
<path d="M59 53L57.02 53.49L58.07 55.24L55.24 58.07L53.49 57.02L53 59H49L48.51 57.02L46.76 58.07L43.93 55.24L44.98 53.49L43 53V49L44.98 48.51L43.93 46.76L46.76 43.93L48.51 44.98L49 43H53L53.49 44.98L55.24 43.93L58.07 46.76L57.02 48.51L59 49V53Z" fill="#C0AB91"/>
<path d="M59 52L57.02 52.49L57.33 53L58.07 54.24L55.24 57.07L53.49 56.02L53 58H49L48.51 56.02L46.76 57.07L46.03 56.34C49.6397 55.2786 52.7948 53.0486 55 50C56.0664 48.4963 56.8618 46.8177 57.35 45.04L58.07 45.76L57.02 47.51L59 48V52Z" fill="#A78966"/>
<path d="M15 22C15 23.3261 15.5268 24.5979 16.4645 25.5355C17.4021 26.4732 18.6739 27 20 27H54C55.3261 27 56.5979 26.4732 57.5355 25.5355C58.4732 24.5979 59 23.3261 59 22C59 20.6739 58.4732 19.4021 57.5355 18.4645C56.5979 17.5268 55.3261 17 54 17H51.99C52.9368 15.7408 53.5724 14.2755 53.8451 12.7239C54.1178 11.1722 54.0197 9.57806 53.559 8.07149C53.0983 6.56491 52.2879 5.1886 51.194 4.05485C50.1001 2.92109 48.7537 2.06201 47.2646 1.54769C45.7754 1.03337 44.1858 0.878381 42.6254 1.09538C41.065 1.31237 39.5779 1.8952 38.2856 2.79631C36.9933 3.69742 35.9324 4.89128 35.1893 6.28048C34.4463 7.66969 34.0422 9.21488 34.01 10.79C33.1921 9.35187 31.9213 8.22478 30.3958 7.58446C28.8702 6.94415 27.1757 6.82658 25.5764 7.2501C23.977 7.67362 22.5628 8.61443 21.5541 9.92583C20.5454 11.2372 19.999 12.8455 20 14.5C20 15.38 20.72 16.22 21 17H20C18.6739 17 17.4021 17.5268 16.4645 18.4645C15.5268 19.4021 15 20.6739 15 22Z" fill="#57A4FF"/>
<path d="M59 22C59 23.3261 58.4732 24.5979 57.5355 25.5355C56.5978 26.4732 55.3261 27 54 27H33.96C38.8649 25.3734 43.3276 22.6355 47 19C49.8477 16.1594 52.1612 12.8297 53.83 9.17001C54.0848 10.5313 54.0528 11.9309 53.736 13.2791C53.4192 14.6274 52.8245 15.8947 51.99 17H54C55.3261 17 56.5978 17.5268 57.5355 18.4645C58.4732 19.4022 59 20.6739 59 22Z" fill="#006DF0"/>
<path d="M51 54C52.6569 54 54 52.6569 54 51C54 49.3431 52.6569 48 51 48C49.3431 48 48 49.3431 48 51C48 52.6569 49.3431 54 51 54Z" fill="#FFDE55"/>
<path d="M29 34V36H25V59H5V36H1V34C1 31.3478 2.05357 28.8043 3.92893 26.9289C5.8043 25.0536 8.34784 24 11 24H12.31L15.08 29.54L17.85 24H19C21.6522 24 24.1957 25.0536 26.0711 26.9289C27.9464 28.8043 29 31.3478 29 34Z" fill="#FF7956"/>
<path d="M25 48V59H22V51H5V48H25Z" fill="#FF5023"/>
<path d="M29 34V36H25V34C25.0012 31.8137 24.2846 29.6875 22.9604 27.9478C21.6363 26.2081 19.7777 24.9512 17.67 24.37L17.85 24H19C20.3132 24 21.6136 24.2587 22.8268 24.7612C24.0401 25.2638 25.1425 26.0003 26.0711 26.9289C26.9997 27.8575 27.7363 28.9599 28.2388 30.1732C28.7414 31.3864 29 32.6868 29 34Z" fill="#FF5023"/>
<path d="M24 7V9C23.9984 9.52995 23.7872 10.0377 23.4125 10.4125C23.0377 10.7872 22.5299 10.9984 22 11H21V7.54L13 5.54L9 7.54V10.19C8.08776 9.66508 7.33008 8.90888 6.80337 7.99767C6.27667 7.08647 5.99956 6.05248 6 5V1H18C18.7879 1 19.5681 1.15519 20.2961 1.45672C21.0241 1.75825 21.6855 2.20021 22.2426 2.75736C22.7998 3.31451 23.2417 3.97595 23.5433 4.7039C23.8448 5.43185 24 6.21207 24 7Z" fill="#898890"/>
<path d="M24 7V9C23.9984 9.52995 23.7872 10.0377 23.4125 10.4125C23.0377 10.7872 22.5299 10.9984 22 11H21V10.73C21.3037 10.5546 21.556 10.3025 21.7315 9.99884C21.9071 9.69519 21.9996 9.35073 22 9V7C22 5.4087 21.3679 3.88258 20.2426 2.75736C19.1174 1.63214 17.5913 1 16 1H18C19.5913 1 21.1174 1.63214 22.2426 2.75736C23.3679 3.88258 24 5.4087 24 7Z" fill="#57565C"/>
<path d="M17.85 24L15.08 29.54L12.31 24H17.85Z" fill="#FFDAAA"/>
<path d="M15 19.54C15.8034 19.5397 16.5988 19.38 17.34 19.07V19.1L18.08 23.54L17.85 24H12.31L12.08 23.54L12.82 19.13C13.514 19.404 14.2539 19.5432 15 19.54Z" fill="#FFDAAA"/>
<path d="M17.82 22H12.34L12.82 19.13C13.514 19.404 14.2539 19.5432 15 19.54C15.8034 19.5397 16.5988 19.38 17.34 19.07V19.1L17.82 22Z" fill="#FFB655"/>
<path d="M17.82 22H12.34L12.82 19.13C13.514 19.404 14.2539 19.5432 15 19.54C15.8034 19.5397 16.5988 19.38 17.34 19.07V19.1L17.82 22Z" fill="#FFB655"/>
<path d="M21 7.54001V13.54C21.001 14.7195 20.6544 15.873 20.0034 16.8566C19.3525 17.8401 18.4261 18.61 17.34 19.07C16.5988 19.38 15.8034 19.5397 15 19.54C14.2539 19.5432 13.514 19.404 12.82 19.13C11.6945 18.6911 10.7278 17.9227 10.0462 16.9253C9.36463 15.9279 8.99999 14.748 9 13.54V7.54001L13 5.54001L21 7.54001Z" fill="#FFDAAA"/>
<path d="M21 7.54001V13.54C21.001 14.7195 20.6544 15.873 20.0034 16.8566C19.3524 17.8401 18.426 18.61 17.34 19.07C16.5988 19.38 15.8034 19.5397 15 19.54C14.6613 19.5407 14.3232 19.5106 13.99 19.45C14.454 19.38 14.9076 19.2524 15.34 19.07C16.426 18.61 17.3524 17.8401 18.0034 16.8566C18.6544 15.873 19.001 14.7195 19 13.54V7.54001L12.33 5.87001L13 5.54001L21 7.54001Z" fill="#FFB655"/>
<path d="M4 40.63C3.98706 40.1985 4.11058 39.7738 4.35296 39.4165C4.59534 39.0592 4.94424 38.7875 5.35 38.64C5.62148 38.5505 5.90882 38.5194 6.19317 38.5487C6.47752 38.578 6.75247 38.667 7 38.81C7.3032 38.986 7.55504 39.2383 7.73047 39.5418C7.90591 39.8453 7.99884 40.1894 8 40.54V42H23V36H29V44.79C28.9989 45.641 28.6604 46.4569 28.0586 47.0586C27.4569 47.6604 26.641 47.9989 25.79 48H3.7C3.28109 48.0059 2.86741 47.9064 2.49697 47.7107C2.12654 47.515 1.81122 47.2294 1.58 46.88C1.21296 46.3207 1.01186 45.6689 1 45C1 44.2044 1.31607 43.4413 1.87868 42.8787C2.44129 42.3161 3.20435 42 4 42V40.63Z" fill="#FFDAAA"/>
<path d="M4 42C3.20435 42 2.44129 42.3161 1.87868 42.8787C1.31607 43.4413 1 44.2044 1 45V36H7V38.81C6.75247 38.667 6.47752 38.578 6.19317 38.5487C5.90882 38.5194 5.62148 38.5505 5.35 38.64C4.94424 38.7875 4.59534 39.0592 4.35296 39.4165C4.11058 39.7738 3.98706 40.1985 4 40.63V42Z" fill="#FFDAAA"/>
<path d="M23 36H29V39H23V36Z" fill="#FFB655"/>
<path d="M1 36H7V39H1V36Z" fill="#FFB655"/>
<path d="M54 16H53.79C54.5905 14.4552 55.0056 12.7398 55 11C54.999 8.31629 54.0169 5.72553 52.2387 3.71551C50.4604 1.70549 48.0087 0.414892 45.3452 0.0867085C42.6816 -0.241475 39.9899 0.415401 37.777 1.93366C35.564 3.45191 33.9824 5.7268 33.33 8.33C32.2394 7.28536 30.887 6.55461 29.4155 6.2149C27.944 5.87519 26.4081 5.93914 24.97 6.4C24.8198 4.65453 24.0206 3.02882 22.7302 1.84391C21.4398 0.65901 19.7519 0.00106077 18 0H6C5.73478 0 5.48043 0.105357 5.29289 0.292893C5.10536 0.48043 5 0.734784 5 1V5C5.00236 6.12457 5.27636 7.23192 5.79869 8.22782C6.32102 9.22373 7.07621 10.0787 8 10.72V13.54C8.0006 14.807 8.34508 16.0501 8.99669 17.1367C9.6483 18.2233 10.5826 19.1127 11.7 19.71L11.15 23H11C8.08319 23.0019 5.28637 24.1614 3.22387 26.2239C1.16138 28.2864 0.00185438 31.0832 0 34V45H0.00999999C0.016434 45.8554 0.26616 46.6913 0.73 47.41C1.053 47.9019 1.49399 48.305 2.01276 48.5828C2.53154 48.8605 3.11158 49.0039 3.7 49H4V59C4 59.2652 4.10536 59.5196 4.29289 59.7071C4.48043 59.8946 4.73478 60 5 60H25C25.2652 60 25.5196 59.8946 25.7071 59.7071C25.8946 59.5196 26 59.2652 26 59V48.98C27.0767 48.9272 28.0919 48.4631 28.8363 47.6834C29.5806 46.9037 29.9972 45.8679 30 44.79V34C30.0008 31.8683 29.3786 29.7828 28.21 28H54C55.5913 28 57.1174 27.3679 58.2426 26.2426C59.3679 25.1174 60 23.5913 60 22C60 20.4087 59.3679 18.8826 58.2426 17.7574C57.1174 16.6321 55.5913 16 54 16ZM8 7.54V7.99C7.35158 7.12797 7.00065 6.07868 7 5V2H18C19.3261 2 20.5979 2.52678 21.5355 3.46447C22.4732 4.40215 23 5.67392 23 7V9C23 9.26522 22.8946 9.51957 22.7071 9.70711C22.5196 9.89464 22.2652 10 22 10V7.54C21.9998 7.31667 21.9249 7.09982 21.7872 6.92403C21.6494 6.74823 21.4568 6.6236 21.24 6.57L13.24 4.57C13.008 4.51077 12.7623 4.53926 12.55 4.65L8.55 6.65C8.38421 6.73199 8.24476 6.85888 8.14753 7.01622C8.05029 7.17356 7.99918 7.35504 8 7.54ZM10 13.54V8.16L13.12 6.6L20 8.32V13.54C20 14.8661 19.4732 16.1379 18.5355 17.0755C17.5979 18.0132 16.3261 18.54 15 18.54C13.6739 18.54 12.4021 18.0132 11.4645 17.0755C10.5268 16.1379 10 14.8661 10 13.54ZM13.18 23L13.61 20.4C14.0676 20.4926 14.5332 20.5395 15 20.54C15.5147 20.54 16.0278 20.483 16.53 20.37L16.97 23H13.18ZM16.23 25L15.08 27.31L13.92 25H16.23ZM2 37H6V37.56C5.67523 37.554 5.35147 37.5978 5.04 37.69C4.43454 37.9041 3.91175 38.3032 3.54564 38.8309C3.17953 39.3585 2.98864 39.9879 3 40.63V41.13C2.64659 41.2212 2.30931 41.3662 2 41.56V37ZM24 58H6V49H24V58ZM28 44.79C27.9997 45.376 27.7668 45.938 27.3524 46.3524C26.938 46.7668 26.376 46.9997 25.79 47H3.7C3.44851 47.0056 3.19964 46.9481 2.97606 46.8328C2.75248 46.7175 2.56132 46.5481 2.42 46.34C2.18318 46.0092 2.04203 45.6196 2.01204 45.2139C1.98206 44.8082 2.06439 44.402 2.25 44.04C2.42188 43.7259 2.67495 43.4636 2.98278 43.2807C3.29061 43.0978 3.64191 43.0008 4 43C4.26522 43 4.51957 42.8946 4.70711 42.7071C4.89464 42.5196 5 42.2652 5 42V40.63C4.98873 40.4122 5.04516 40.1963 5.16155 40.0118C5.27793 39.8274 5.44856 39.6836 5.65 39.6C5.76293 39.5623 5.88096 39.5421 6 39.54C6.13151 39.5393 6.26184 39.5648 6.38347 39.6148C6.50509 39.6648 6.61559 39.7384 6.70858 39.8314C6.80157 39.9244 6.87521 40.0349 6.92523 40.1565C6.97525 40.2782 7.00066 40.4085 7 40.54V42C7 42.2652 7.10536 42.5196 7.29289 42.7071C7.48043 42.8946 7.73478 43 8 43H23C23.2652 43 23.5196 42.8946 23.7071 42.7071C23.8946 42.5196 24 42.2652 24 42V37H28V44.79ZM28 35H23C22.7348 35 22.4804 35.1054 22.2929 35.2929C22.1054 35.4804 22 35.7348 22 36V41H9V40.54C8.99568 40.1224 8.90455 39.7103 8.7324 39.3298C8.56024 38.9494 8.31083 38.6089 8 38.33V36C8 35.7348 7.89464 35.4804 7.70711 35.2929C7.51957 35.1054 7.26522 35 7 35H2V34C2.0037 31.6142 2.9531 29.3272 4.64013 27.6401C6.32715 25.9531 8.61419 25.0037 11 25H11.69L14.18 29.99C14.2629 30.1564 14.3906 30.2964 14.5487 30.3942C14.7068 30.4921 14.8891 30.5439 15.075 30.5439C15.2609 30.5439 15.4432 30.4921 15.6013 30.3942C15.7594 30.2964 15.8871 30.1564 15.97 29.99L18.46 25H19C21.3858 25.0037 23.6728 25.9531 25.3599 27.6401C27.0469 29.3272 27.9963 31.6142 28 34V35ZM54 26H26.53C24.4944 24.0764 21.8007 23.0032 19 23L18.44 19.63C19.5194 19.0209 20.4177 18.1362 21.0432 17.0662C21.6687 15.9962 21.9989 14.7794 22 13.54V12C22.7949 11.9976 23.5566 11.6808 24.1187 11.1187C24.6808 10.5566 24.9976 9.79492 25 9V8.51C25.7902 8.17255 26.6407 7.99905 27.5 8C28.6464 8.00387 29.7715 8.31007 30.7617 8.88772C31.752 9.46536 32.5723 10.294 33.14 11.29C33.2512 11.4785 33.4202 11.6261 33.622 11.7108C33.8238 11.7955 34.0476 11.8127 34.26 11.76C34.4717 11.7054 34.6596 11.5829 34.7951 11.4114C34.9305 11.2398 35.006 11.0286 35.01 10.81C35.0361 9.38987 35.398 7.99607 36.066 6.7426C36.734 5.48912 37.6892 4.41155 38.8535 3.598C40.0179 2.78446 41.3582 2.25803 42.7649 2.06177C44.1717 1.86552 45.6049 2.005 46.9474 2.46883C48.2899 2.93265 49.5036 3.70763 50.4892 4.73041C51.4748 5.75319 52.2043 6.99473 52.6181 8.35349C53.0319 9.71225 53.1182 11.1497 52.87 12.5482C52.6218 13.9467 52.0461 15.2666 51.19 16.4C51.0786 16.5486 51.0107 16.7252 50.994 16.9102C50.9774 17.0952 51.0125 17.2811 51.0956 17.4472C51.1786 17.6133 51.3063 17.753 51.4643 17.8507C51.6222 17.9483 51.8043 18 51.99 18H54C55.0609 18 56.0783 18.4214 56.8284 19.1716C57.5786 19.9217 58 20.9391 58 22C58 23.0609 57.5786 24.0783 56.8284 24.8284C56.0783 25.5786 55.0609 26 54 26Z" fill="black"/>
<path d="M28 50H30V52H28V50Z" fill="black"/>
<path d="M51 47C50.2089 47 49.4355 47.2346 48.7777 47.6741C48.1199 48.1136 47.6072 48.7384 47.3045 49.4693C47.0017 50.2002 46.9225 51.0044 47.0769 51.7804C47.2312 52.5563 47.6122 53.269 48.1716 53.8284C48.731 54.3878 49.4437 54.7688 50.2196 54.9231C50.9956 55.0775 51.7998 54.9983 52.5307 54.6955C53.2616 54.3928 53.8864 53.8801 54.3259 53.2223C54.7654 52.5645 55 51.7911 55 51C55 49.9391 54.5786 48.9217 53.8284 48.1716C53.0783 47.4214 52.0609 47 51 47ZM51 53C50.6044 53 50.2178 52.8827 49.8889 52.6629C49.56 52.4432 49.3036 52.1308 49.1522 51.7654C49.0009 51.3999 48.9613 50.9978 49.0384 50.6098C49.1156 50.2219 49.3061 49.8655 49.5858 49.5858C49.8655 49.3061 50.2219 49.1156 50.6098 49.0384C50.9978 48.9613 51.3999 49.0009 51.7654 49.1522C52.1308 49.3036 52.4432 49.56 52.6629 49.8889C52.8827 50.2178 53 50.6044 53 51C53 51.5304 52.7893 52.0391 52.4142 52.4142C52.0391 52.7893 51.5304 53 51 53Z" fill="black"/>
<path d="M59.242 48.03L58.574 47.863L58.929 47.272C59.0438 47.0807 59.0912 46.8564 59.0639 46.635C59.0365 46.4136 58.9359 46.2076 58.778 46.05L55.949 43.222C55.7914 43.0644 55.5857 42.9639 55.3645 42.9365C55.1433 42.9092 54.9192 42.9565 54.728 43.071L54.137 43.426L53.97 42.758C53.916 42.5416 53.7912 42.3494 53.6155 42.2121C53.4397 42.0747 53.2231 42.0001 53 42H52V30H50V42H49C48.7769 42.0001 48.5603 42.0747 48.3845 42.2121C48.2088 42.3494 48.084 42.5416 48.03 42.758L47.863 43.426L47.272 43.071C47.0808 42.9565 46.8567 42.9092 46.6355 42.9365C46.4143 42.9639 46.2086 43.0644 46.051 43.222L43.222 46.05C43.0641 46.2076 42.9635 46.4136 42.9361 46.635C42.9088 46.8564 42.9562 47.0807 43.071 47.272L43.426 47.863L42.758 48.03C42.5416 48.084 42.3494 48.2088 42.2121 48.3845C42.0747 48.5603 42.0001 48.7769 42 49V50H32V52H42V53C42.0001 53.2231 42.0747 53.4397 42.2121 53.6155C42.3494 53.7912 42.5416 53.916 42.758 53.97L43.426 54.137L43.071 54.728C42.9562 54.9193 42.9088 55.1436 42.9361 55.365C42.9635 55.5864 43.0641 55.7924 43.222 55.95L46.051 58.778C46.2086 58.9356 46.4143 59.0361 46.6355 59.0635C46.8567 59.0908 47.0808 59.0435 47.272 58.929L47.863 58.574L48.03 59.242C48.084 59.4584 48.2088 59.6506 48.3845 59.7879C48.5603 59.9253 48.7769 59.9999 49 60H53C53.2231 59.9999 53.4397 59.9253 53.6155 59.7879C53.7912 59.6506 53.916 59.4584 53.97 59.242L54.137 58.574L54.728 58.929C54.9192 59.0435 55.1433 59.0908 55.3645 59.0635C55.5857 59.0361 55.7914 58.9356 55.949 58.778L58.778 55.95C58.9359 55.7924 59.0365 55.5864 59.0639 55.365C59.0912 55.1436 59.0438 54.9193 58.929 54.728L58.574 54.137L59.242 53.97C59.4584 53.916 59.6506 53.7912 59.7879 53.6155C59.9253 53.4397 59.9999 53.2231 60 53V49C59.9999 48.7769 59.9253 48.5603 59.7879 48.3845C59.6506 48.2088 59.4584 48.084 59.242 48.03ZM58 52.219L56.78 52.519C56.6284 52.5569 56.4877 52.6297 56.3694 52.7318C56.251 52.8338 56.1582 52.9622 56.0984 53.1066C56.0386 53.251 56.0135 53.4074 56.0251 53.5632C56.0366 53.7191 56.0845 53.87 56.165 54.004L56.812 55.082L55.087 56.807L54.009 56.16C53.875 56.0795 53.724 56.0316 53.5682 56.0201C53.4123 56.0085 53.256 56.0336 53.1116 56.0934C52.9672 56.1532 52.8388 56.246 52.7368 56.3644C52.6347 56.4827 52.5619 56.6234 52.524 56.775L52.224 57.995H49.781L49.481 56.775C49.4431 56.6234 49.3703 56.4827 49.2682 56.3644C49.1662 56.246 49.0378 56.1532 48.8934 56.0934C48.749 56.0336 48.5926 56.0085 48.4368 56.0201C48.2809 56.0316 48.13 56.0795 47.996 56.16L46.918 56.807L45.193 55.082L45.84 54.004C45.9205 53.87 45.9684 53.7191 45.9799 53.5632C45.9915 53.4074 45.9664 53.251 45.9066 53.1066C45.8468 52.9622 45.754 52.8338 45.6356 52.7318C45.5173 52.6297 45.3766 52.5569 45.225 52.519L44.005 52.219V49.781L45.225 49.481C45.3766 49.4431 45.5173 49.3703 45.6356 49.2682C45.754 49.1662 45.8468 49.0378 45.9066 48.8934C45.9664 48.749 45.9915 48.5926 45.9799 48.4368C45.9684 48.2809 45.9205 48.13 45.84 47.996L45.193 46.918L46.918 45.193L47.996 45.84C48.13 45.9205 48.2809 45.9684 48.4368 45.9799C48.5926 45.9915 48.749 45.9664 48.8934 45.9066C49.0378 45.8468 49.1662 45.754 49.2682 45.6356C49.3703 45.5173 49.4431 45.3766 49.481 45.225L49.781 44.005H52.219L52.519 45.225C52.5569 45.3766 52.6297 45.5173 52.7318 45.6356C52.8338 45.754 52.9622 45.8468 53.1066 45.9066C53.251 45.9664 53.4074 45.9915 53.5632 45.9799C53.7191 45.9684 53.87 45.9205 54.004 45.84L55.082 45.193L56.807 46.918L56.16 47.996C56.0795 48.13 56.0316 48.2809 56.0201 48.4368C56.0085 48.5926 56.0336 48.749 56.0934 48.8934C56.1532 49.0378 56.246 49.1662 56.3644 49.2682C56.4827 49.3703 56.6234 49.4431 56.775 49.481L57.995 49.781L58 52.219Z" fill="black"/>
<path d="M16 11H18V13H16V11Z" fill="black"/>
<path d="M12 11H14V13H12V11Z" fill="black"/>
<path d="M14 33H16V35H14V33Z" fill="black"/>
<path d="M14 37H16V39H14V37Z" fill="black"/>
</svg>
