<svg width="57" height="64" viewBox="0 0 57 64" fill="none" xmlns="http://www.w3.org/2000/svg">
<path d="M8.37115 63.8752C3.75517 63.8752 0.0124756 60.1201 0 55.5041C0 45.062 8.49591 36.5786 18.9255 36.5786H38.0133C48.4554 36.5786 56.9388 45.0745 56.9388 55.5041C56.9388 60.1201 53.1961 63.8628 48.5676 63.8752H8.37115Z" fill="black"/>
<path d="M18.9255 37.8261H38.0133C47.7817 37.8261 55.6912 45.7357 55.6912 55.5041C55.6912 59.4339 52.4975 62.6277 48.5676 62.6277H8.37115C4.44132 62.6277 1.24756 59.4339 1.24756 55.5041C1.24756 45.7357 9.15711 37.8261 18.9255 37.8261Z" fill="#FF7956"/>
<path d="M28.4694 34.0335C37.8675 34.0335 45.4862 26.4149 45.4862 17.0168C45.4862 7.61866 37.8675 0 28.4694 0C19.0713 0 11.4526 7.61866 11.4526 17.0168C11.4526 26.4149 19.0713 34.0335 28.4694 34.0335Z" fill="black"/>
<path d="M28.4694 32.786C37.1785 32.786 44.2386 25.7258 44.2386 17.0168C44.2386 8.30767 37.1785 1.24756 28.4694 1.24756C19.7603 1.24756 12.7002 8.30767 12.7002 17.0168C12.7002 25.7258 19.7603 32.786 28.4694 32.786Z" fill="#95BAF9"/>
</svg>
